<svg width="212" height="32" viewBox="0 0 212 32" fill="none" xmlns="http://www.w3.org/2000/svg">
<g clip-path="url(#clip0_5_334)">
<path fill-rule="evenodd" clip-rule="evenodd" d="M207.269 0C208.064 0 208.846 0.203213 209.593 0.621591C210.352 1.02802 210.945 1.6257 211.36 2.39074C211.787 3.15577 211.988 3.95667 211.988 4.79343C211.988 5.61823 211.775 6.41913 211.36 7.17221C210.945 7.93724 210.364 8.52297 209.605 8.95331C208.858 9.37168 208.076 9.58685 207.246 9.58685C206.416 9.58685 205.633 9.37168 204.886 8.95331C204.139 8.53493 203.558 7.93724 203.132 7.17221C202.717 6.40717 202.503 5.61823 202.503 4.79343C202.503 3.96862 202.717 3.15577 203.132 2.39074C203.558 1.6257 204.151 1.02802 204.91 0.621591C205.669 0.203213 206.439 0 207.234 0L207.269 0ZM207.269 0.788943C206.605 0.788943 205.953 0.968248 205.325 1.3149C204.697 1.66156 204.211 2.15166 203.855 2.79716C203.499 3.44266 203.321 4.10011 203.321 4.79343C203.321 5.48674 203.499 6.14419 203.843 6.77774C204.199 7.41128 204.685 7.90138 205.313 8.25999C205.942 8.60665 206.594 8.78595 207.281 8.78595C207.969 8.78595 208.621 8.60665 209.249 8.25999C209.878 7.90138 210.364 7.41128 210.708 6.77774C211.052 6.14419 211.229 5.47479 211.229 4.79343C211.229 4.10011 211.052 3.43071 210.696 2.79716C210.34 2.15166 209.854 1.66156 209.226 1.3149C208.597 0.968248 207.945 0.788943 207.281 0.788943H207.269ZM205.195 7.43519V2.28315H206.949C207.542 2.28315 207.981 2.33097 208.253 2.4266C208.526 2.52223 208.74 2.68958 208.894 2.9167C209.048 3.15577 209.131 3.4068 209.131 3.66978C209.131 4.0523 209 4.37505 208.728 4.64998C208.467 4.92492 208.111 5.09227 207.673 5.11618C207.85 5.1879 207.993 5.28353 208.111 5.39111C208.313 5.59432 208.562 5.94098 208.87 6.41913L209.487 7.42323H208.479L208.028 6.61038C207.673 5.97684 207.388 5.57042 207.163 5.41502C207.009 5.29548 206.795 5.23571 206.499 5.23571H206.013V7.42323H205.195V7.43519ZM206.013 4.53044H207.009C207.483 4.53044 207.815 4.45872 207.981 4.31528C208.159 4.17183 208.242 3.98058 208.242 3.7415C208.242 3.5861 208.194 3.45461 208.111 3.33508C208.028 3.21554 207.91 3.11991 207.756 3.06014C207.613 3.00037 207.341 2.97647 206.937 2.97647H206.001V4.53044H206.013Z" fill="#010101"/>
<path fill-rule="evenodd" clip-rule="evenodd" d="M6.52089 32C2.91662 32 0 29.0474 0 25.4016V6.59843C0 2.95256 2.91662 0 6.52089 0H194.263C197.867 0 200.784 2.95256 200.784 6.59843V25.3896C200.784 29.0355 197.867 31.988 194.263 31.988H6.52089V32Z" fill="#010101"/>
<path fill-rule="evenodd" clip-rule="evenodd" d="M181.162 8.29585C181.162 7.86552 181.506 7.51886 181.933 7.51886C182.36 7.51886 182.703 7.86552 182.703 8.29585C182.703 8.72618 182.36 9.07284 181.933 9.07284C181.506 9.07284 181.162 8.72618 181.162 8.29585ZM181.553 5.61822C181.767 5.24766 182.099 5.24766 182.312 5.61822L182.869 6.59843H184.055C184.47 6.59843 184.636 6.89727 184.434 7.25588L183.842 8.29585L184.434 9.33582C184.648 9.70638 184.47 9.99327 184.055 9.99327H182.869L182.312 10.9735C182.099 11.344 181.767 11.344 181.553 10.9735L180.996 9.99327H179.811C179.396 9.99327 179.23 9.69443 179.431 9.33582L180.024 8.29585L179.431 7.25588C179.218 6.88531 179.396 6.59843 179.811 6.59843H180.996L181.553 5.61822Z" fill="#FFC629"/>
<path fill-rule="evenodd" clip-rule="evenodd" d="M179.728 13.4359C179.728 13.0056 180.071 12.6589 180.498 12.6589C180.925 12.6589 181.269 13.0056 181.269 13.4359C181.269 13.8663 180.925 14.2129 180.498 14.2129C180.071 14.2129 179.728 13.8663 179.728 13.4359ZM180.119 10.7583C180.332 10.3877 180.664 10.3877 180.878 10.7583L181.435 11.7385H182.62C183.035 11.7385 183.201 12.0373 183 12.396L182.407 13.4359L183 14.4759C183.213 14.8465 183.035 15.1333 182.62 15.1333H181.435L180.878 16.1135C180.664 16.4841 180.332 16.4841 180.119 16.1135L179.562 15.1333H178.376C177.961 15.1333 177.783 14.8345 177.997 14.4759L178.589 13.4359L177.997 12.396C177.783 12.0254 177.961 11.7385 178.376 11.7385H179.562L180.119 10.7583Z" fill="#FFC629"/>
<path fill-rule="evenodd" clip-rule="evenodd" d="M178.305 18.5641C178.305 18.1337 178.649 17.7871 179.075 17.7871C179.502 17.7871 179.846 18.1337 179.846 18.5641C179.846 18.9944 179.502 19.341 179.075 19.341C178.649 19.341 178.305 18.9944 178.305 18.5641ZM178.696 15.8864C178.909 15.5159 179.241 15.5159 179.455 15.8864L180.012 16.8666H181.198C181.613 16.8666 181.779 17.1655 181.577 17.5241L180.984 18.5641L181.577 19.604C181.79 19.9746 181.613 20.2615 181.198 20.2615H180.012L179.455 21.2417C179.241 21.6122 178.909 21.6122 178.696 21.2417L178.139 20.2615H176.953C176.538 20.2615 176.372 19.9626 176.574 19.604L177.167 18.5641L176.574 17.5241C176.36 17.1535 176.538 16.8666 176.953 16.8666H178.139L178.696 15.8864Z" fill="#FFC629"/>
<path fill-rule="evenodd" clip-rule="evenodd" d="M176.87 23.7041C176.87 23.2738 177.214 22.9272 177.641 22.9272C178.068 22.9272 178.411 23.2738 178.411 23.7041C178.411 24.1345 178.068 24.4811 177.641 24.4811C177.214 24.4811 176.87 24.1345 176.87 23.7041ZM177.261 21.0265C177.475 20.656 177.807 20.656 178.02 21.0265L178.577 22.0067H179.763C180.178 22.0067 180.356 22.3056 180.142 22.6642L179.55 23.7041L180.142 24.7441C180.356 25.1147 180.178 25.4016 179.763 25.4016H178.577L178.02 26.3818C177.807 26.7523 177.475 26.7523 177.261 26.3818L176.704 25.4016H175.519C175.104 25.4016 174.938 25.1027 175.139 24.7441L175.732 23.7041L175.139 22.6642C174.926 22.2936 175.104 22.0067 175.519 22.0067H176.704L177.261 21.0265Z" fill="#FFC629"/>
<path fill-rule="evenodd" clip-rule="evenodd" d="M188.632 8.29585C188.632 7.86552 188.288 7.51886 187.861 7.51886C187.434 7.51886 187.09 7.86552 187.09 8.29585C187.09 8.72618 187.434 9.07284 187.861 9.07284C188.288 9.07284 188.632 8.72618 188.632 8.29585ZM188.24 5.61822C188.027 5.24766 187.695 5.24766 187.481 5.61822L186.924 6.59843H185.739C185.324 6.59843 185.146 6.89727 185.359 7.25588L185.952 8.29585L185.359 9.33582C185.146 9.70638 185.324 9.99327 185.739 9.99327H186.924L187.481 10.9735C187.695 11.344 188.027 11.344 188.24 10.9735L188.798 9.99327H189.983C190.398 9.99327 190.576 9.69443 190.363 9.33582L189.77 8.29585L190.363 7.25588C190.576 6.88531 190.398 6.59843 189.983 6.59843H188.798L188.24 5.61822Z" fill="#FFC629"/>
<path fill-rule="evenodd" clip-rule="evenodd" d="M190.054 13.4359C190.054 13.0056 189.71 12.6589 189.284 12.6589C188.857 12.6589 188.513 13.0056 188.513 13.4359C188.513 13.8663 188.857 14.2129 189.284 14.2129C189.71 14.2129 190.054 13.8663 190.054 13.4359ZM189.663 10.7583C189.45 10.3877 189.118 10.3877 188.904 10.7583L188.347 11.7385H187.161C186.746 11.7385 186.58 12.0373 186.782 12.396L187.375 13.4359L186.782 14.4759C186.569 14.8465 186.746 15.1333 187.161 15.1333H188.347L188.904 16.1135C189.118 16.4841 189.45 16.4841 189.663 16.1135L190.22 15.1333H191.406C191.821 15.1333 191.987 14.8345 191.785 14.4759L191.192 13.4359L191.785 12.396C191.999 12.0254 191.821 11.7385 191.406 11.7385H190.22L189.663 10.7583Z" fill="#FFC629"/>
<path fill-rule="evenodd" clip-rule="evenodd" d="M191.489 18.5641C191.489 18.1337 191.145 17.7871 190.718 17.7871C190.291 17.7871 189.948 18.1337 189.948 18.5641C189.948 18.9944 190.291 19.341 190.718 19.341C191.145 19.341 191.489 18.9944 191.489 18.5641ZM191.098 15.8864C190.884 15.5159 190.552 15.5159 190.339 15.8864L189.782 16.8666H188.596C188.181 16.8666 188.003 17.1655 188.217 17.5241L188.809 18.5641L188.217 19.604C188.003 19.9746 188.181 20.2615 188.596 20.2615H189.782L190.339 21.2417C190.552 21.6122 190.884 21.6122 191.098 21.2417L191.655 20.2615H192.84C193.255 20.2615 193.433 19.9626 193.22 19.604L192.627 18.5641L193.22 17.5241C193.433 17.1535 193.255 16.8666 192.84 16.8666H191.655L191.098 15.8864Z" fill="#FFC629"/>
<path fill-rule="evenodd" clip-rule="evenodd" d="M192.912 23.7041C192.912 23.2738 192.568 22.9272 192.141 22.9272C191.714 22.9272 191.37 23.2738 191.37 23.7041C191.37 24.1345 191.714 24.4811 192.141 24.4811C192.568 24.4811 192.912 24.1345 192.912 23.7041ZM192.52 21.0265C192.307 20.656 191.975 20.656 191.761 21.0265L191.204 22.0067H190.019C189.604 22.0067 189.438 22.3056 189.639 22.6642L190.232 23.7041L189.639 24.7441C189.426 25.1147 189.604 25.4016 190.019 25.4016H191.204L191.761 26.3818C191.975 26.7523 192.307 26.7523 192.52 26.3818L193.078 25.4016H194.263C194.678 25.4016 194.844 25.1027 194.643 24.7441L194.05 23.7041L194.643 22.6642C194.856 22.2936 194.678 22.0067 194.263 22.0067H193.078L192.52 21.0265Z" fill="#FFC629"/>
<path fill-rule="evenodd" clip-rule="evenodd" d="M185.656 18.5641C185.656 18.1337 185.312 17.7871 184.885 17.7871C184.458 17.7871 184.114 18.1337 184.114 18.5641C184.114 18.9944 184.458 19.341 184.885 19.341C185.312 19.341 185.656 18.9944 185.656 18.5641ZM185.264 15.8864C185.051 15.5159 184.719 15.5159 184.506 15.8864L183.948 16.8666H182.763C182.348 16.8666 182.17 17.1655 182.383 17.5241L182.976 18.5641L182.383 19.604C182.17 19.9746 182.348 20.2615 182.763 20.2615H183.948L184.506 21.2417C184.719 21.6122 185.051 21.6122 185.264 21.2417L185.822 20.2615H187.007C187.422 20.2615 187.588 19.9626 187.387 19.604L186.794 18.5641L187.387 17.5241C187.6 17.1535 187.422 16.8666 187.007 16.8666H185.822L185.264 15.8864Z" fill="#FFC629"/>
<path fill-rule="evenodd" clip-rule="evenodd" d="M80.2425 10.7105C80.5745 10.6627 80.9302 10.6388 81.274 10.6388C82.2699 10.6388 83.2303 10.8181 84.1076 11.1528C84.4396 11.2604 84.8071 11.3201 85.1747 11.3201C86.0995 11.3201 86.9294 10.9496 87.5459 10.3519C87.2495 10.1487 86.9887 9.89764 86.7634 9.64661C86.052 8.82181 85.1628 8.16436 84.1788 7.69816C83.9535 7.60253 83.7045 7.55472 83.4437 7.55472C82.5663 7.55472 81.8431 8.18826 81.7008 9.03697C81.523 9.80201 80.9539 10.3997 80.2188 10.6149C80.1832 10.6149 80.1714 10.6388 80.1714 10.6746C80.1714 10.7105 80.207 10.7344 80.2425 10.7344V10.7105Z" fill="#FFC629"/>
<path fill-rule="evenodd" clip-rule="evenodd" d="M84.0128 7.01681C84.321 7.1483 84.6412 7.3037 84.9376 7.48301C85.8031 7.98506 86.5381 8.63056 87.1428 9.35974C87.3681 9.62272 87.6645 9.84984 87.9846 10.0411C88.779 10.5073 89.6919 10.6149 90.5218 10.3997C90.3677 10.077 90.261 9.7303 90.2017 9.3956C90.0001 8.31977 89.5496 7.3037 88.9212 6.39522C88.779 6.19201 88.5774 6.03661 88.364 5.90512C87.6052 5.46284 86.6686 5.64214 86.1232 6.29959C85.5896 6.86142 84.7953 7.10049 84.0602 6.90923C84.0365 6.90923 84.0009 6.90923 83.9891 6.93314C83.9772 6.95705 83.9891 7.00486 84.0246 7.01681H84.0128Z" fill="#FFC629"/>
<path fill-rule="evenodd" clip-rule="evenodd" d="M78.7961 15.8028C79.0688 15.5996 79.3534 15.3963 79.6616 15.217C80.5271 14.715 81.4401 14.3922 82.3649 14.2249C82.7087 14.1532 83.0407 14.0097 83.3726 13.8304C84.167 13.3642 84.7124 12.6231 84.9495 11.7863C84.5938 11.7624 84.2381 11.6787 83.9299 11.5712C82.9102 11.2126 81.8076 11.093 80.7287 11.2006C80.4797 11.2245 80.2426 11.3201 80.0292 11.4397C79.2704 11.882 78.9621 12.8024 79.2467 13.6033C79.4719 14.3564 79.2704 15.1573 78.7369 15.7191C78.7132 15.743 78.7132 15.7669 78.725 15.7908C78.7369 15.8147 78.7843 15.8267 78.808 15.8028H78.7961Z" fill="#FFC629"/>
<path fill-rule="evenodd" clip-rule="evenodd" d="M82.6374 17.5241C82.7916 17.3448 82.922 17.1416 83.0406 16.9384C83.5029 16.1255 83.6096 15.2051 83.3962 14.3683C83.0761 14.5237 82.7323 14.6313 82.4003 14.6911C81.3451 14.8943 80.3255 15.3485 79.4363 15.9821C79.2347 16.1255 79.0806 16.3287 78.9502 16.5559C78.7723 16.8547 78.7012 17.1894 78.7131 17.5241H82.6374Z" fill="#FFC629"/>
<path fill-rule="evenodd" clip-rule="evenodd" d="M88.6959 26.2383C88.4943 25.9634 88.2928 25.6646 88.1268 25.3657C87.6289 24.4931 87.3087 23.5607 87.1427 22.6283C87.0716 22.2817 86.9293 21.935 86.7515 21.6123C86.2891 20.7994 85.554 20.2495 84.736 20.0224C84.7122 20.381 84.6292 20.7396 84.5225 21.0624C84.1669 22.0904 84.0483 23.2021 84.155 24.3018C84.1787 24.5529 84.2736 24.7919 84.3921 25.0191C84.8308 25.7841 85.7437 26.1068 86.5262 25.808C87.2613 25.5809 88.0675 25.7841 88.6248 26.322C88.6485 26.3459 88.6722 26.3459 88.6959 26.334C88.7196 26.322 88.7315 26.2742 88.7078 26.2503L88.6959 26.2383Z" fill="#FFC629"/>
<path fill-rule="evenodd" clip-rule="evenodd" d="M83.657 24.78C83.6096 24.4453 83.5978 24.0867 83.5978 23.7281C83.5978 22.724 83.7756 21.7557 84.1076 20.8592C84.2143 20.5245 84.2617 20.1539 84.2617 19.7833C84.2617 18.851 83.8942 18.0023 83.3014 17.3807C83.0998 17.6795 82.8627 17.9425 82.6018 18.1696C81.7838 18.8868 81.1317 19.7834 80.6812 20.7875C80.5863 21.0146 80.5389 21.2656 80.5389 21.5286C80.5389 22.4132 81.1673 23.1543 81.9972 23.2977C82.7441 23.477 83.3488 24.0508 83.5503 24.8039C83.5503 24.8398 83.5741 24.8517 83.6096 24.8517C83.6452 24.8517 83.6689 24.8158 83.6689 24.78H83.657Z" fill="#FFC629"/>
<path fill-rule="evenodd" clip-rule="evenodd" d="M93.7941 24.9593C93.4858 24.8278 93.1657 24.6724 92.8693 24.4931C92.0038 23.991 91.2687 23.3455 90.664 22.6164C90.4388 22.3534 90.1424 22.1263 89.8223 21.935C89.0279 21.4688 88.115 21.3612 87.285 21.5764C87.4392 21.8991 87.5459 22.2458 87.6051 22.5805C87.8067 23.6563 88.2572 24.6724 88.8856 25.5809C89.0279 25.7841 89.2294 25.9395 89.4429 26.071C90.2016 26.5133 91.1383 26.334 91.6837 25.6765C92.2172 25.1147 93.0116 24.8756 93.7466 25.0669C93.7703 25.0669 93.8059 25.0669 93.8178 25.043C93.8296 25.0191 93.8178 24.9712 93.7822 24.9593H93.7941Z" fill="#FFC629"/>
<path fill-rule="evenodd" clip-rule="evenodd" d="M93.3317 20.7277C93.1064 20.6799 92.8693 20.6679 92.6203 20.6679C91.6955 20.6679 90.8656 21.0385 90.2491 21.6362C90.5455 21.8394 90.8063 22.0904 91.0316 22.3414C91.743 23.1662 92.6322 23.8237 93.6162 24.2899C93.8415 24.3855 94.0905 24.4333 94.3513 24.4333C94.6951 24.4333 95.0271 24.3377 95.2998 24.1584L93.3435 20.7277H93.3317Z" fill="#FFC629"/>
<path fill-rule="evenodd" clip-rule="evenodd" d="M97.7304 11.0811C97.5999 11.3919 97.4458 11.7146 97.268 12.0254C96.77 12.898 96.1416 13.6391 95.4184 14.2488C95.1576 14.4759 94.9323 14.7747 94.7426 15.0975C94.2802 15.9103 94.1735 16.8308 94.3869 17.6675C94.707 17.5121 95.0509 17.4046 95.3828 17.3448C96.438 17.1416 97.4577 16.6873 98.3469 16.0538C98.5484 15.9103 98.7026 15.7071 98.833 15.48C99.2717 14.715 99.0938 13.7587 98.4417 13.2088C97.8845 12.6709 97.6474 11.87 97.8371 11.1169C97.8371 11.093 97.8371 11.0571 97.8133 11.0452C97.7896 11.0332 97.7422 11.0452 97.7304 11.0811Z" fill="#FFC629"/>
<path fill-rule="evenodd" clip-rule="evenodd" d="M98.9989 16.2331C98.7262 16.4363 98.4417 16.6395 98.1334 16.8188C97.2679 17.3209 96.355 17.6436 95.4302 17.811C95.0864 17.8827 94.7544 18.0261 94.4225 18.2055C93.6281 18.6716 93.0827 19.4128 92.8456 20.2495C93.2013 20.2734 93.557 20.3571 93.8652 20.4647C94.8848 20.8233 95.9875 20.9428 97.0664 20.8353C97.3154 20.8114 97.5525 20.7157 97.7659 20.5962C98.5247 20.1539 98.8329 19.2335 98.5484 18.4326C98.3231 17.6795 98.5247 16.8786 99.0582 16.3168C99.0819 16.2929 99.0819 16.269 99.0701 16.245C99.0582 16.2211 99.0108 16.2092 98.9871 16.2331H98.9989Z" fill="#FFC629"/>
<path fill-rule="evenodd" clip-rule="evenodd" d="M94.0786 7.2559C94.126 7.5906 94.1379 7.94921 94.1379 8.30782C94.1379 9.31193 93.96 10.2802 93.6281 11.1767C93.5214 11.5114 93.4739 11.882 93.4739 12.2525C93.4739 13.1849 93.8415 14.0336 94.4343 14.6552C94.6358 14.3564 94.873 14.0934 95.1338 13.8663C95.9519 13.1491 96.604 12.2525 97.0545 11.2484C97.1494 11.0213 97.1968 10.7703 97.1968 10.5073C97.1968 9.62272 96.5684 8.8816 95.7385 8.73815C94.9915 8.55885 94.3869 7.98507 94.1853 7.23199C94.1853 7.19613 94.1616 7.18417 94.126 7.18417C94.0905 7.18417 94.0667 7.22003 94.0667 7.2559H94.0786Z" fill="#FFC629"/>
<path fill-rule="evenodd" clip-rule="evenodd" d="M90.6996 9.76615C90.7707 9.99327 90.8774 10.2084 90.996 10.4236C91.4584 11.2364 92.1935 11.7863 93.0116 12.0134C93.0353 11.6548 93.1183 11.2962 93.225 10.9735C93.5806 9.94545 93.6992 8.83376 93.5925 7.73402C93.5688 7.48299 93.4858 7.24392 93.3554 7.0168C93.1775 6.71796 92.9286 6.47888 92.644 6.32349L90.6877 9.75419L90.6996 9.76615Z" fill="#FFC629"/>
<path fill-rule="evenodd" clip-rule="evenodd" d="M30.0079 8.29585C30.0079 7.86552 30.3518 7.51886 30.7786 7.51886C31.2054 7.51886 31.5492 7.86552 31.5492 8.29585C31.5492 8.72618 31.2054 9.07284 30.7786 9.07284C30.3518 9.07284 30.0079 8.72618 30.0079 8.29585ZM30.3992 5.61822C30.6126 5.24766 30.9446 5.24766 31.158 5.61822L31.7152 6.59843H32.9008C33.3158 6.59843 33.4936 6.89727 33.2802 7.25588L32.6874 8.29585L33.2802 9.33582C33.4936 9.70638 33.3158 9.99327 32.9008 9.99327H31.7152L31.158 10.9735C30.9446 11.344 30.6126 11.344 30.3992 10.9735L29.8419 9.99327H28.6563C28.2414 9.99327 28.0635 9.69443 28.2769 9.33582L28.8697 8.29585L28.2769 7.25588C28.0635 6.88531 28.2414 6.59843 28.6563 6.59843H29.8419L30.3992 5.61822Z" fill="#FFC629"/>
<path fill-rule="evenodd" clip-rule="evenodd" d="M28.5734 13.4359C28.5734 13.0056 28.9172 12.6589 29.344 12.6589C29.7708 12.6589 30.1147 13.0056 30.1147 13.4359C30.1147 13.8663 29.7708 14.2129 29.344 14.2129C28.9172 14.2129 28.5734 13.8663 28.5734 13.4359ZM28.9646 10.7583C29.178 10.3877 29.51 10.3877 29.7234 10.7583L30.2807 11.7385H31.4663C31.8812 11.7385 32.0472 12.0373 31.8457 12.396L31.2529 13.4359L31.8457 14.4759C32.0591 14.8465 31.8812 15.1333 31.4663 15.1333H30.2807L29.7234 16.1135C29.51 16.4841 29.178 16.4841 28.9646 16.1135L28.4074 15.1333H27.2218C26.8068 15.1333 26.629 14.8345 26.8424 14.4759L27.4352 13.4359L26.8424 12.396C26.629 12.0254 26.8068 11.7385 27.2218 11.7385H28.4074L28.9646 10.7583Z" fill="#FFC629"/>
<path fill-rule="evenodd" clip-rule="evenodd" d="M27.1506 18.5641C27.1506 18.1337 27.4944 17.7871 27.9212 17.7871C28.348 17.7871 28.6919 18.1337 28.6919 18.5641C28.6919 18.9944 28.348 19.341 27.9212 19.341C27.4944 19.341 27.1506 18.9944 27.1506 18.5641ZM27.5418 15.8864C27.7552 15.5159 28.0872 15.5159 28.3006 15.8864L28.8579 16.8666H30.0435C30.4584 16.8666 30.6363 17.1655 30.4229 17.5241L29.8301 18.5641L30.4229 19.604C30.6363 19.9746 30.4584 20.2615 30.0435 20.2615H28.8579L28.3006 21.2417C28.0872 21.6122 27.7552 21.6122 27.5418 21.2417L26.9846 20.2615H25.799C25.384 20.2615 25.2062 19.9626 25.4196 19.604L26.0124 18.5641L25.4196 17.5241C25.2062 17.1535 25.384 16.8666 25.799 16.8666H26.9846L27.5418 15.8864Z" fill="#FFC629"/>
<path fill-rule="evenodd" clip-rule="evenodd" d="M25.716 23.7041C25.716 23.2738 26.0598 22.9272 26.4867 22.9272C26.9135 22.9272 27.2573 23.2738 27.2573 23.7041C27.2573 24.1345 26.9135 24.4811 26.4867 24.4811C26.0598 24.4811 25.716 24.1345 25.716 23.7041ZM26.1073 21.0265C26.3207 20.656 26.6526 20.656 26.866 21.0265L27.4233 22.0067H28.6089C29.0239 22.0067 29.1899 22.3056 28.9883 22.6642L28.3955 23.7041L28.9883 24.7441C29.2017 25.1147 29.0239 25.4016 28.6089 25.4016H27.4233L26.866 26.3818C26.6526 26.7523 26.3207 26.7523 26.1073 26.3818L25.55 25.4016H24.3644C23.9494 25.4016 23.7716 25.1027 23.985 24.7441L24.5778 23.7041L23.985 22.6642C23.7716 22.2936 23.9494 22.0067 24.3644 22.0067H25.55L26.1073 21.0265Z" fill="#FFC629"/>
<path fill-rule="evenodd" clip-rule="evenodd" d="M37.4773 8.29585C37.4773 7.86552 37.1335 7.51886 36.7067 7.51886C36.2799 7.51886 35.936 7.86552 35.936 8.29585C35.936 8.72618 36.2799 9.07284 36.7067 9.07284C37.1335 9.07284 37.4773 8.72618 37.4773 8.29585ZM37.0861 5.61822C36.8727 5.24766 36.5407 5.24766 36.3273 5.61822L35.77 6.59843H34.5844C34.1695 6.59843 33.9916 6.89727 34.205 7.25588L34.7978 8.29585L34.205 9.33582C33.9916 9.70638 34.1695 9.99327 34.5844 9.99327H35.77L36.3273 10.9735C36.5407 11.344 36.8727 11.344 37.0861 10.9735L37.6433 9.99327H38.8289C39.2439 9.99327 39.4217 9.69443 39.2083 9.33582L38.6155 8.29585L39.2083 7.25588C39.4217 6.88531 39.2439 6.59843 38.8289 6.59843H37.6433L37.0861 5.61822Z" fill="#FFC629"/>
<path fill-rule="evenodd" clip-rule="evenodd" d="M38.9001 13.4359C38.9001 13.0056 38.5562 12.6589 38.1294 12.6589C37.7026 12.6589 37.3588 13.0056 37.3588 13.4359C37.3588 13.8663 37.7026 14.2129 38.1294 14.2129C38.5562 14.2129 38.9001 13.8663 38.9001 13.4359ZM38.5088 10.7583C38.2954 10.3877 37.9634 10.3877 37.75 10.7583L37.1928 11.7385H36.0072C35.5922 11.7385 35.4144 12.0373 35.6278 12.396L36.2206 13.4359L35.6278 14.4759C35.4144 14.8465 35.5922 15.1333 36.0072 15.1333H37.1928L37.75 16.1135C37.9634 16.4841 38.2954 16.4841 38.5088 16.1135L39.0661 15.1333H40.2517C40.6666 15.1333 40.8326 14.8345 40.6311 14.4759L40.0383 13.4359L40.6311 12.396C40.8445 12.0254 40.6666 11.7385 40.2517 11.7385H39.0661L38.5088 10.7583Z" fill="#FFC629"/>
<path fill-rule="evenodd" clip-rule="evenodd" d="M40.3346 18.5641C40.3346 18.1337 39.9908 17.7871 39.564 17.7871C39.1372 17.7871 38.7933 18.1337 38.7933 18.5641C38.7933 18.9944 39.1372 19.341 39.564 19.341C39.9908 19.341 40.3346 18.9944 40.3346 18.5641ZM39.9434 15.8864C39.73 15.5159 39.398 15.5159 39.1846 15.8864L38.6273 16.8666H37.4417C37.0268 16.8666 36.8489 17.1655 37.0623 17.5241L37.6551 18.5641L37.0623 19.604C36.8489 19.9746 37.0268 20.2615 37.4417 20.2615H38.6273L39.1846 21.2417C39.398 21.6122 39.73 21.6122 39.9434 21.2417L40.5006 20.2615H41.6862C42.1012 20.2615 42.279 19.9626 42.0656 19.604L41.4728 18.5641L42.0656 17.5241C42.279 17.1535 42.1012 16.8666 41.6862 16.8666H40.5006L39.9434 15.8864Z" fill="#FFC629"/>
<path fill-rule="evenodd" clip-rule="evenodd" d="M41.7574 23.7041C41.7574 23.2738 41.4135 22.9272 40.9867 22.9272C40.5599 22.9272 40.2161 23.2738 40.2161 23.7041C40.2161 24.1345 40.5599 24.4811 40.9867 24.4811C41.4135 24.4811 41.7574 24.1345 41.7574 23.7041ZM41.3661 21.0265C41.1527 20.656 40.8207 20.656 40.6073 21.0265L40.0501 22.0067H38.8645C38.4495 22.0067 38.2717 22.3056 38.4851 22.6642L39.0779 23.7041L38.4851 24.7441C38.2717 25.1147 38.4495 25.4016 38.8645 25.4016H40.0501L40.6073 26.3818C40.8207 26.7523 41.1527 26.7523 41.3661 26.3818L41.9234 25.4016H43.109C43.5239 25.4016 43.6899 25.1027 43.4884 24.7441L42.8956 23.7041L43.4884 22.6642C43.7018 22.2936 43.5239 22.0067 43.109 22.0067H41.9234L41.3661 21.0265Z" fill="#FFC629"/>
<path fill-rule="evenodd" clip-rule="evenodd" d="M34.5014 18.5641C34.5014 18.1337 34.1576 17.7871 33.7308 17.7871C33.304 17.7871 32.9601 18.1337 32.9601 18.5641C32.9601 18.9944 33.304 19.341 33.7308 19.341C34.1576 19.341 34.5014 18.9944 34.5014 18.5641ZM34.1102 15.8864C33.8968 15.5159 33.5648 15.5159 33.3514 15.8864L32.7942 16.8666H31.6085C31.1936 16.8666 31.0157 17.1655 31.2291 17.5241L31.8219 18.5641L31.2291 19.604C31.0157 19.9746 31.1936 20.2615 31.6085 20.2615H32.7942L33.3514 21.2417C33.5648 21.6122 33.8968 21.6122 34.1102 21.2417L34.6674 20.2615H35.853C36.268 20.2615 36.4459 19.9626 36.2324 19.604L35.6396 18.5641L36.2324 17.5241C36.4459 17.1535 36.268 16.8666 35.853 16.8666H34.6674L34.1102 15.8864Z" fill="#FFC629"/>
<path d="M120.245 5.14009C120.245 5.14009 120.352 5.10423 120.364 5.17595L120.435 5.43893L120.482 5.63019L120.648 5.53456L120.885 5.40307C120.885 5.40307 120.992 5.40307 120.992 5.46284V5.73777V5.92903L121.182 5.88121L121.443 5.80949C121.514 5.79754 121.549 5.8334 121.526 5.89317L121.454 6.15615L121.407 6.34741H121.597H121.869C121.941 6.34741 121.964 6.39522 121.929 6.45499L121.798 6.69406L121.703 6.86142L121.893 6.90923L122.154 6.98095C122.225 6.99291 122.237 7.05268 122.19 7.10049L122 7.29175L121.858 7.43519L122.024 7.53082L122.261 7.66231C122.261 7.66231 122.32 7.75794 122.261 7.78185L122.024 7.91334L121.858 8.00897L122 8.15241L122.19 8.34367C122.19 8.34367 122.225 8.45126 122.154 8.46321L121.893 8.53493L121.703 8.58275L121.798 8.7501L121.929 8.98917C121.964 9.04894 121.929 9.09675 121.869 9.09675H121.407L121.454 9.28801L121.526 9.55099C121.537 9.62272 121.502 9.65858 121.443 9.63467L121.182 9.56295L120.992 9.51513V9.98133C120.992 10.053 120.945 10.077 120.885 10.0411L120.648 9.9096L120.482 9.81398L120.435 10.0052L120.364 10.2682C120.352 10.3399 120.293 10.3519 120.245 10.3041L120.055 10.1128L119.913 9.96937L119.818 10.1367L119.688 10.3758C119.652 10.4356 119.593 10.4356 119.569 10.3758L119.439 10.1367L119.344 9.96937L119.225 10.0889L119.036 10.2802C119.036 10.2802 118.929 10.316 118.917 10.2443L118.846 9.98133L118.799 9.79007L118.633 9.8857L118.396 10.0172C118.396 10.0172 118.289 10.0172 118.289 9.95742V9.49123L118.111 9.53904L117.85 9.61076C117.779 9.62272 117.743 9.58685 117.767 9.52709L117.838 9.26411L117.886 9.0848H117.423C117.352 9.0848 117.329 9.03699 117.364 8.97722L117.494 8.73814L117.589 8.57079L117.4 8.52298L117.139 8.45126C117.068 8.4393 117.056 8.37953 117.103 8.33172L117.293 8.14046L117.423 8.00897L117.257 7.91334L117.02 7.78185C117.02 7.78185 116.961 7.68622 117.02 7.66231L117.257 7.53082L117.423 7.43519L117.293 7.3037L117.103 7.11244C117.103 7.11244 117.068 7.00486 117.139 6.99291L117.4 6.92118L117.577 6.87337L117.483 6.70602L117.352 6.46694C117.317 6.40718 117.352 6.35936 117.411 6.35936H117.874L117.826 6.1681L117.755 5.90512C117.743 5.8334 117.779 5.79754 117.838 5.82145L118.099 5.89317L118.289 5.94098V5.47479C118.289 5.40307 118.336 5.37916 118.396 5.41502L118.633 5.54651L118.799 5.64214L118.846 5.45088L118.917 5.1879C118.929 5.11618 118.988 5.10423 119.036 5.15204L119.225 5.3433L119.368 5.48674L119.463 5.31939L119.593 5.08032C119.629 5.02055 119.688 5.02055 119.712 5.08032L119.842 5.31939L119.937 5.48674L120.079 5.3433L120.269 5.15204L120.245 5.14009Z" fill="#FFC629"/>
<path d="M120.245 10.6507C120.245 10.6507 120.352 10.6149 120.364 10.6866L120.435 10.9496L120.482 11.1408L120.648 11.0452L120.885 10.9137C120.885 10.9137 120.992 10.9137 120.992 10.9735V11.2484V11.4397L121.182 11.3919L121.443 11.3201C121.514 11.3082 121.549 11.3441 121.526 11.4038L121.454 11.6668L121.407 11.8581H121.869C121.941 11.8581 121.964 11.9059 121.929 11.9656L121.798 12.2047L121.703 12.3721L121.893 12.4199L122.154 12.4916C122.225 12.5036 122.237 12.5633 122.19 12.6111L122 12.8024L121.858 12.9458L122.024 13.0415L122.261 13.173C122.261 13.173 122.32 13.2686 122.261 13.2925L122.024 13.424L121.858 13.5196L122 13.6631L122.19 13.8543C122.19 13.8543 122.225 13.9619 122.154 13.9739L121.893 14.0456L121.703 14.0934L121.798 14.2607L121.929 14.4998C121.964 14.5596 121.929 14.6074 121.869 14.6074H121.407L121.454 14.7987L121.526 15.0616C121.537 15.1334 121.502 15.1692 121.443 15.1453L121.182 15.0736L120.992 15.0258V15.492C120.992 15.5637 120.945 15.5876 120.885 15.5517L120.648 15.4203L120.482 15.3246L120.435 15.5159L120.364 15.7789C120.352 15.8506 120.293 15.8625 120.245 15.8147L120.055 15.6235L119.913 15.48L119.818 15.6474L119.688 15.8864C119.652 15.9462 119.593 15.9462 119.569 15.8864L119.439 15.6474L119.344 15.48L119.225 15.5996L119.036 15.7908C119.036 15.7908 118.929 15.8267 118.917 15.755L118.846 15.492L118.799 15.3007L118.633 15.3963L118.396 15.5278C118.396 15.5278 118.289 15.5278 118.289 15.4681V15.0019L118.111 15.0497L117.85 15.1214C117.779 15.1334 117.743 15.0975 117.767 15.0377L117.838 14.7748L117.886 14.5955H117.423C117.352 14.5955 117.329 14.5476 117.364 14.4879L117.494 14.2488L117.589 14.0814L117.4 14.0336L117.139 13.9619C117.068 13.95 117.056 13.8902 117.103 13.8424L117.293 13.6511L117.423 13.5196L117.257 13.424L117.02 13.2925C117.02 13.2925 116.961 13.1969 117.02 13.173L117.257 13.0415L117.423 12.9458L117.293 12.8144L117.103 12.6231C117.103 12.6231 117.068 12.5155 117.139 12.5036L117.4 12.4318L117.577 12.384L117.483 12.2167L117.352 11.9776C117.317 11.9178 117.352 11.87 117.411 11.87H117.874L117.826 11.6788L117.755 11.4158C117.743 11.3441 117.779 11.3082 117.838 11.3321L118.099 11.4038L118.289 11.4516V10.9854C118.289 10.9137 118.336 10.8898 118.396 10.9257L118.633 11.0572L118.799 11.1528L118.846 10.9615L118.917 10.6986C118.929 10.6268 118.988 10.6149 119.036 10.6627L119.225 10.854L119.368 10.9974L119.463 10.83L119.593 10.591C119.629 10.5312 119.688 10.5312 119.712 10.591L119.842 10.83L119.937 10.9974L120.079 10.854L120.269 10.6627L120.245 10.6507Z" fill="#FFC629"/>
<path d="M120.245 16.1614C120.245 16.1614 120.352 16.1255 120.364 16.1972L120.435 16.4602L120.482 16.6515L120.648 16.5558L120.885 16.4244C120.885 16.4244 120.992 16.4244 120.992 16.4841V16.7591V16.9503L121.182 16.9025L121.443 16.8308C121.514 16.8188 121.549 16.8547 121.526 16.9145L121.454 17.1774L121.407 17.3687H121.869C121.941 17.3687 121.964 17.4165 121.929 17.4763L121.798 17.7154L121.703 17.8827L121.893 17.9305L122.154 18.0022C122.225 18.0142 122.237 18.074 122.19 18.1218L122 18.313L121.858 18.4565L122.024 18.5521L122.261 18.6836C122.261 18.6836 122.32 18.7792 122.261 18.8031L122.024 18.9346L121.858 19.0303L122 19.1737L122.19 19.365C122.19 19.365 122.225 19.4725 122.154 19.4845L121.893 19.5562L121.703 19.604L121.798 19.7714L121.929 20.0105C121.964 20.0702 121.929 20.118 121.869 20.118H121.407L121.454 20.3093L121.526 20.5723C121.537 20.644 121.502 20.6799 121.443 20.656L121.182 20.5842L120.992 20.5364V21.0026C120.992 21.0743 120.945 21.0982 120.885 21.0624L120.648 20.9309L120.482 20.8353L120.435 21.0265L120.364 21.2895C120.352 21.3612 120.293 21.3732 120.245 21.3254L120.055 21.1341L119.913 20.9907L119.818 21.158L119.688 21.3971C119.652 21.4569 119.593 21.4569 119.569 21.3971L119.439 21.158L119.344 20.9907L119.225 21.1102L119.036 21.3015C119.036 21.3015 118.929 21.3373 118.917 21.2656L118.846 21.0026L118.799 20.8114L118.633 20.907L118.396 21.0385C118.396 21.0385 118.289 21.0385 118.289 20.9787V20.5125L118.111 20.5603L117.85 20.632C117.779 20.644 117.743 20.6081 117.767 20.5484L117.838 20.2854L117.886 20.1061H117.423C117.352 20.1061 117.329 20.0583 117.364 19.9985L117.494 19.7594L117.589 19.5921L117.4 19.5443L117.139 19.4725C117.068 19.4606 117.056 19.4008 117.103 19.353L117.293 19.1617L117.423 19.0303L117.257 18.9346L117.02 18.8031C117.02 18.8031 116.961 18.7075 117.02 18.6836L117.257 18.5521L117.423 18.4565L117.293 18.325L117.103 18.1337C117.103 18.1337 117.068 18.0261 117.139 18.0142L117.4 17.9425L117.577 17.8947L117.483 17.7273L117.352 17.4882C117.352 17.4882 117.352 17.3806 117.411 17.3806H117.874L117.826 17.1894L117.755 16.9264C117.743 16.8547 117.779 16.8188 117.838 16.8427L118.099 16.9145L118.289 16.9623V16.4961C118.289 16.4244 118.336 16.4004 118.396 16.4363L118.633 16.5678L118.799 16.6634L118.846 16.4722L118.917 16.2092C118.929 16.1375 118.988 16.1255 119.036 16.1733L119.225 16.3646L119.368 16.508L119.463 16.3407L119.593 16.1016C119.629 16.0418 119.688 16.0418 119.712 16.1016L119.842 16.3407L119.937 16.508L120.079 16.3646L120.269 16.1733L120.245 16.1614Z" fill="#FFC629"/>
<path d="M120.245 21.672C120.245 21.672 120.352 21.6362 120.364 21.7079L120.435 21.9709L120.482 22.1621L120.648 22.0665L120.885 21.935C120.885 21.935 120.992 21.935 120.992 21.9948V22.2697V22.461L121.182 22.4132L121.443 22.3414C121.514 22.3295 121.549 22.3653 121.526 22.4251L121.454 22.6881L121.407 22.8793H121.869C121.941 22.8793 121.964 22.9272 121.929 22.9869L121.798 23.226L121.703 23.3934L121.893 23.4412L122.154 23.5129C122.225 23.5248 122.237 23.5846 122.19 23.6324L122 23.8237L121.858 23.9671L122.024 24.0628L122.261 24.1942C122.261 24.1942 122.32 24.2899 122.261 24.3138L122.024 24.4453L121.858 24.5409L122 24.6844L122.19 24.8756C122.19 24.8756 122.225 24.9832 122.154 24.9951L121.893 25.0669L121.703 25.1147L121.798 25.282L121.929 25.5211C121.929 25.5211 121.929 25.6287 121.869 25.6287H121.597H121.407L121.454 25.82L121.526 26.0829C121.537 26.1547 121.502 26.1905 121.443 26.1666L121.182 26.0949L120.992 26.0471V26.5133C120.992 26.585 120.945 26.6089 120.885 26.573L120.648 26.4415L120.482 26.3459L120.435 26.5372L120.364 26.8002C120.352 26.8719 120.293 26.8838 120.245 26.836L120.055 26.6448L119.913 26.5013L119.818 26.6687L119.688 26.9077C119.652 26.9675 119.593 26.9675 119.569 26.9077L119.439 26.6687L119.344 26.5013L119.225 26.6208L119.036 26.8121C119.036 26.8121 118.929 26.848 118.917 26.7762L118.846 26.5133L118.799 26.322L118.633 26.4176L118.396 26.5491C118.396 26.5491 118.289 26.5491 118.289 26.4894V26.0232L118.111 26.071L117.85 26.1427C117.779 26.1547 117.743 26.1188 117.767 26.059L117.838 25.796L117.886 25.6167H117.423C117.352 25.6167 117.329 25.5689 117.364 25.5092L117.494 25.2701L117.589 25.1027L117.4 25.0549L117.139 24.9832C117.068 24.9712 117.056 24.9115 117.103 24.8637L117.293 24.6724L117.423 24.5409L117.257 24.4453L117.02 24.3138C117.02 24.3138 116.961 24.2182 117.02 24.1942L117.257 24.0628L117.423 23.9671L117.293 23.8356L117.103 23.6444C117.103 23.6444 117.068 23.5368 117.139 23.5248L117.4 23.4531L117.577 23.4053L117.483 23.238L117.352 22.9989C117.317 22.9391 117.352 22.8913 117.411 22.8913H117.684H117.874L117.826 22.7L117.755 22.4371C117.743 22.3653 117.779 22.3295 117.838 22.3534L118.099 22.4251L118.289 22.4729V22.0067C118.289 21.935 118.336 21.9111 118.396 21.947L118.633 22.0784L118.799 22.1741L118.846 21.9828L118.917 21.7198C118.929 21.6481 118.988 21.6362 119.036 21.684L119.225 21.8752L119.368 22.0187L119.463 21.8513L119.593 21.6123C119.629 21.5525 119.688 21.5525 119.712 21.6123L119.842 21.8513L119.937 22.0187L120.079 21.8752L120.269 21.684L120.245 21.672Z" fill="#FFC629"/>
<path d="M122.521 7.11244C122.521 7.11244 122.486 7.00486 122.557 6.99291L122.818 6.92118L123.008 6.87337L122.913 6.70602L122.782 6.46694C122.747 6.40718 122.782 6.35936 122.842 6.35936H123.304L123.257 6.1681L123.185 5.90512C123.174 5.8334 123.209 5.79754 123.268 5.82145L123.529 5.89317L123.719 5.94098V5.74972V5.47479C123.719 5.40307 123.766 5.37916 123.826 5.41502L124.063 5.54651L124.229 5.64214L124.276 5.45088L124.347 5.1879C124.359 5.11618 124.418 5.10423 124.466 5.15204L124.656 5.3433L124.798 5.48674L124.893 5.31939L125.023 5.08032C125.059 5.02055 125.118 5.02055 125.142 5.08032L125.272 5.31939L125.367 5.48674L125.509 5.3433L125.699 5.15204C125.699 5.15204 125.806 5.11618 125.817 5.1879L125.889 5.45088L125.936 5.64214L126.102 5.54651L126.339 5.41502C126.339 5.41502 126.446 5.41502 126.446 5.47479V5.94098L126.636 5.89317L126.896 5.82145C126.968 5.80949 127.003 5.84535 126.979 5.90512L126.908 6.1681L126.861 6.35936H127.323C127.394 6.35936 127.418 6.40718 127.383 6.46694L127.252 6.70602L127.157 6.87337L127.347 6.92118L127.608 6.99291C127.679 7.00486 127.691 7.06463 127.643 7.11244L127.454 7.3037L127.311 7.44715L127.477 7.54278L127.714 7.67427C127.714 7.67427 127.774 7.7699 127.714 7.7938L127.477 7.92529L127.311 8.02092L127.43 8.14046L127.62 8.33172C127.62 8.33172 127.655 8.4393 127.584 8.45126L127.323 8.52298L127.134 8.57079L127.228 8.73814L127.359 8.97722C127.394 9.03699 127.359 9.0848 127.3 9.0848H126.837L126.885 9.27606L126.956 9.53904C126.968 9.61076 126.932 9.64662 126.873 9.62272L126.612 9.55099L126.434 9.50318V9.69444V9.96937C126.434 10.0411 126.387 10.065 126.327 10.0291L126.09 9.89765L125.924 9.80202L125.877 9.99328L125.806 10.2563C125.794 10.328 125.735 10.3399 125.687 10.2921L125.497 10.1009L125.367 9.96937L125.272 10.1367L125.142 10.3758C125.106 10.4356 125.047 10.4356 125.023 10.3758L124.893 10.1367L124.798 9.96937L124.667 10.1009L124.478 10.2921C124.478 10.2921 124.371 10.328 124.359 10.2563L124.288 9.99328L124.241 9.81398L124.075 9.9096L123.838 10.0411C123.838 10.0411 123.731 10.0411 123.731 9.98133V9.51513L123.541 9.56295L123.28 9.63467C123.209 9.64662 123.174 9.61076 123.197 9.55099L123.268 9.28801L123.316 9.09675H123.126H122.853C122.782 9.09675 122.759 9.04894 122.794 8.98917L122.925 8.7501L123.019 8.58275L122.83 8.53493L122.569 8.46321C122.498 8.45126 122.486 8.39149 122.533 8.34367L122.723 8.15241L122.865 8.00897L122.699 7.91334L122.462 7.78185C122.462 7.78185 122.403 7.68622 122.462 7.66231L122.699 7.53082L122.865 7.43519L122.723 7.29175L122.533 7.10049L122.521 7.11244Z" fill="#FFC629"/>
<path d="M127.975 7.11244C127.975 7.11244 127.94 7.00486 128.011 6.99291L128.272 6.92118L128.461 6.87337L128.367 6.70602L128.236 6.46694C128.201 6.40718 128.236 6.35936 128.295 6.35936H128.758L128.71 6.1681L128.639 5.90512C128.627 5.8334 128.663 5.79754 128.722 5.82145L128.983 5.89317L129.173 5.94098V5.47479C129.173 5.40307 129.22 5.37916 129.28 5.41502L129.517 5.54651L129.683 5.64214L129.73 5.45088L129.801 5.1879C129.813 5.11618 129.872 5.10423 129.92 5.15204L130.109 5.3433L130.252 5.48674L130.347 5.31939L130.477 5.08032C130.513 5.02055 130.572 5.02055 130.596 5.08032L130.726 5.31939L130.821 5.48674L130.963 5.3433L131.153 5.15204C131.153 5.15204 131.259 5.11618 131.271 5.1879L131.342 5.45088L131.39 5.64214L131.556 5.54651L131.793 5.41502C131.793 5.41502 131.9 5.41502 131.9 5.47479V5.94098L132.089 5.89317L132.35 5.82145C132.421 5.80949 132.457 5.84535 132.433 5.90512L132.362 6.1681L132.315 6.35936H132.777C132.848 6.35936 132.872 6.40718 132.836 6.46694L132.706 6.70602L132.611 6.87337L132.801 6.92118L133.062 6.99291C133.133 7.00486 133.145 7.06463 133.097 7.11244L132.907 7.3037L132.765 7.44715L132.931 7.54278L133.168 7.67427C133.168 7.67427 133.228 7.7699 133.168 7.7938L132.931 7.92529L132.765 8.02092L132.884 8.14046L133.073 8.33172C133.073 8.33172 133.109 8.4393 133.038 8.45126L132.777 8.52298L132.587 8.57079L132.682 8.73814L132.813 8.97722C132.848 9.03699 132.813 9.0848 132.753 9.0848H132.291L132.338 9.27606L132.41 9.53904C132.421 9.61076 132.386 9.64662 132.327 9.62272L132.066 9.55099L131.888 9.50318V9.96937C131.888 10.0411 131.84 10.065 131.781 10.0291L131.544 9.89765L131.378 9.80202L131.331 9.99328L131.259 10.2563C131.248 10.328 131.188 10.3399 131.141 10.2921L130.951 10.1009L130.821 9.96937L130.726 10.1367L130.596 10.3758C130.56 10.4356 130.501 10.4356 130.477 10.3758L130.347 10.1367L130.252 9.96937L130.121 10.1009L129.932 10.2921C129.932 10.2921 129.825 10.328 129.813 10.2563L129.742 9.99328L129.694 9.81398L129.528 9.9096L129.291 10.0411C129.291 10.0411 129.185 10.0411 129.185 9.98133V9.51513L128.995 9.56295L128.734 9.63467C128.663 9.64662 128.627 9.61076 128.651 9.55099L128.722 9.28801L128.77 9.09675H128.58H128.307C128.236 9.09675 128.212 9.04894 128.248 8.98917L128.378 8.7501L128.473 8.58275L128.284 8.53493L128.023 8.46321C127.952 8.45126 127.94 8.39149 127.987 8.34367L128.177 8.15241L128.319 8.00897L128.153 7.91334L127.916 7.78185C127.916 7.78185 127.857 7.68622 127.916 7.66231L128.153 7.53082L128.319 7.43519L128.177 7.29175L127.987 7.10049L127.975 7.11244Z" fill="#FFC629"/>
<path d="M122.521 23.6444C122.521 23.6444 122.486 23.5368 122.557 23.5248L122.818 23.4531L123.008 23.4053L122.913 23.238L122.782 22.9989C122.782 22.9989 122.782 22.8913 122.842 22.8913H123.304L123.257 22.7L123.185 22.4371C123.174 22.3653 123.209 22.3295 123.268 22.3534L123.529 22.4251L123.719 22.4729V22.2817V22.0067C123.719 21.935 123.766 21.9111 123.826 21.947L124.063 22.0784L124.229 22.1741L124.276 21.9828L124.347 21.7198C124.359 21.6481 124.418 21.6362 124.466 21.684L124.656 21.8752L124.798 22.0187L124.893 21.8513L125.023 21.6123C125.059 21.5525 125.118 21.5525 125.142 21.6123L125.272 21.8513L125.367 22.0187L125.509 21.8752L125.699 21.684C125.699 21.684 125.806 21.6481 125.817 21.7198L125.889 21.9828L125.936 22.1741L126.102 22.0784L126.339 21.947C126.339 21.947 126.446 21.947 126.446 22.0067V22.4729L126.636 22.4251L126.896 22.3534C126.968 22.3414 127.003 22.3773 126.979 22.4371L126.908 22.7L126.861 22.8913H127.323C127.394 22.8913 127.418 22.9391 127.383 22.9989L127.252 23.238L127.157 23.4053L127.347 23.4531L127.608 23.5248C127.679 23.5368 127.691 23.5966 127.643 23.6444L127.454 23.8356L127.311 23.9791L127.477 24.0747L127.714 24.2062C127.714 24.2062 127.774 24.3018 127.714 24.3257L127.477 24.4572L127.311 24.5529L127.43 24.6724L127.62 24.8637C127.62 24.8637 127.655 24.9712 127.584 24.9832L127.323 25.0549L127.134 25.1027L127.228 25.2701L127.359 25.5092C127.394 25.5689 127.359 25.6167 127.3 25.6167H126.837L126.885 25.808L126.956 26.071C126.968 26.1427 126.932 26.1786 126.873 26.1547L126.612 26.0829L126.434 26.0351V26.2264V26.5013C126.434 26.573 126.387 26.5969 126.327 26.5611L126.09 26.4296L125.924 26.334L125.877 26.5252L125.806 26.7882C125.794 26.8599 125.735 26.8719 125.687 26.8241L125.497 26.6328L125.367 26.5013L125.272 26.6687L125.142 26.9077C125.106 26.9675 125.047 26.9675 125.023 26.9077L124.893 26.6687L124.798 26.5013L124.667 26.6328L124.478 26.8241C124.478 26.8241 124.371 26.8599 124.359 26.7882L124.288 26.5252L124.241 26.3459L124.075 26.4415L123.838 26.573C123.838 26.573 123.731 26.573 123.731 26.5133V26.0471L123.541 26.0949L123.28 26.1666C123.209 26.1786 123.174 26.1427 123.197 26.0829L123.268 25.82L123.316 25.6287H122.853C122.782 25.6287 122.759 25.5809 122.794 25.5211L122.925 25.282L123.019 25.1147L122.83 25.0669L122.569 24.9951C122.498 24.9832 122.486 24.9234 122.533 24.8756L122.723 24.6844L122.865 24.5409L122.699 24.4453L122.462 24.3138C122.462 24.3138 122.403 24.2182 122.462 24.1942L122.699 24.0628L122.865 23.9671L122.723 23.8237L122.533 23.6324L122.521 23.6444Z" fill="#FFC629"/>
<path d="M127.975 23.6444C127.975 23.6444 127.94 23.5368 128.011 23.5248L128.272 23.4531L128.461 23.4053L128.367 23.238L128.236 22.9989C128.236 22.9989 128.236 22.8913 128.295 22.8913H128.758L128.71 22.7L128.639 22.4371C128.627 22.3653 128.663 22.3295 128.722 22.3534L128.983 22.4251L129.173 22.4729V22.0067C129.173 21.935 129.22 21.9111 129.28 21.947L129.517 22.0784L129.683 22.1741L129.73 21.9828L129.801 21.7198C129.813 21.6481 129.872 21.6362 129.92 21.684L130.109 21.8752L130.252 22.0187L130.347 21.8513L130.477 21.6123C130.513 21.5525 130.572 21.5525 130.596 21.6123L130.726 21.8513L130.821 22.0187L130.963 21.8752L131.153 21.684C131.153 21.684 131.259 21.6481 131.271 21.7198L131.342 21.9828L131.39 22.1741L131.556 22.0784L131.793 21.947C131.793 21.947 131.9 21.947 131.9 22.0067V22.4729L132.089 22.4251L132.35 22.3534C132.421 22.3414 132.457 22.3773 132.433 22.4371L132.362 22.7L132.315 22.8913H132.777C132.848 22.8913 132.872 22.9391 132.836 22.9989L132.706 23.238L132.611 23.4053L132.801 23.4531L133.062 23.5248C133.133 23.5368 133.145 23.5966 133.097 23.6444L132.907 23.8356L132.765 23.9791L132.931 24.0747L133.168 24.2062C133.168 24.2062 133.228 24.3018 133.168 24.3257L132.931 24.4572L132.765 24.5529L132.884 24.6724L133.073 24.8637C133.073 24.8637 133.109 24.9712 133.038 24.9832L132.777 25.0549L132.587 25.1027L132.682 25.2701L132.813 25.5092C132.848 25.5689 132.813 25.6167 132.753 25.6167H132.291L132.338 25.808L132.41 26.071C132.421 26.1427 132.386 26.1786 132.327 26.1547L132.066 26.0829L131.888 26.0351V26.5013C131.888 26.573 131.84 26.5969 131.781 26.5611L131.544 26.4296L131.378 26.334L131.331 26.5252L131.259 26.7882C131.248 26.8599 131.188 26.8719 131.141 26.8241L130.951 26.6328L130.821 26.5013L130.726 26.6687L130.596 26.9077C130.56 26.9675 130.501 26.9675 130.477 26.9077L130.347 26.6687L130.252 26.5013L130.121 26.6328L129.932 26.8241C129.932 26.8241 129.825 26.8599 129.813 26.7882L129.742 26.5252L129.694 26.3459L129.528 26.4415L129.291 26.573C129.291 26.573 129.185 26.573 129.185 26.5133V26.0471L128.995 26.0949L128.734 26.1666C128.663 26.1786 128.627 26.1427 128.651 26.0829L128.722 25.82L128.77 25.6287H128.307C128.236 25.6287 128.212 25.5809 128.248 25.5211L128.378 25.282L128.473 25.1147L128.284 25.0669L128.023 24.9951C127.952 24.9832 127.94 24.9234 127.987 24.8756L128.177 24.6844L128.319 24.5409L128.153 24.4453L127.916 24.3138C127.916 24.3138 127.857 24.2182 127.916 24.1942L128.153 24.0628L128.319 23.9671L128.177 23.8237L127.987 23.6324L127.975 23.6444Z" fill="#FFC629"/>
<path d="M121.822 15.3724C121.822 15.3724 121.786 15.2648 121.858 15.2529L122.118 15.1812L122.308 15.1333L122.213 14.966L122.083 14.7269C122.047 14.6672 122.083 14.6193 122.142 14.6193H122.605L122.557 14.4281L122.486 14.1651C122.474 14.0934 122.51 14.0575 122.569 14.0814L122.83 14.1531L123.019 14.201V13.7348C123.019 13.663 123.067 13.6391 123.126 13.675L123.363 13.8065L123.529 13.9021L123.577 13.7109L123.648 13.4479C123.66 13.3762 123.719 13.3642 123.766 13.412L123.956 13.6033L124.098 13.7467L124.193 13.5794L124.324 13.3403C124.359 13.2805 124.419 13.2805 124.442 13.3403L124.573 13.5794L124.668 13.7467L124.81 13.6033L124.999 13.412C124.999 13.412 125.106 13.3762 125.118 13.4479L125.189 13.7109L125.237 13.9021L125.403 13.8065L125.64 13.675C125.64 13.675 125.746 13.675 125.746 13.7348V14.201L125.936 14.1531L126.197 14.0814C126.268 14.0695 126.304 14.1053 126.28 14.1651L126.209 14.4281L126.161 14.6193H126.624C126.695 14.6193 126.719 14.6672 126.683 14.7269L126.553 14.966L126.458 15.1333L126.647 15.1812L126.908 15.2529C126.979 15.2768 126.991 15.3246 126.944 15.3724L126.754 15.5637L126.612 15.7071L126.778 15.8028L127.015 15.9342C127.015 15.9342 127.074 16.0299 127.015 16.0538L126.778 16.1853L126.612 16.2809L126.73 16.4004L126.92 16.5917C126.92 16.5917 126.956 16.6993 126.885 16.7112L126.624 16.783L126.434 16.8308L126.529 16.9981L126.659 17.2372C126.659 17.2372 126.659 17.3448 126.6 17.3448H126.138L126.185 17.536L126.256 17.799C126.268 17.8707 126.233 17.9066 126.173 17.8827L125.912 17.811L125.735 17.7632V17.9544V18.2294C125.735 18.3011 125.687 18.325 125.628 18.2891L125.391 18.1576L125.225 18.062L125.177 18.2533L125.106 18.5162C125.094 18.588 125.035 18.5999 124.988 18.5521L124.798 18.3608L124.668 18.2294L124.573 18.3967L124.442 18.6358C124.442 18.6358 124.347 18.6955 124.324 18.6358L124.193 18.3967L124.098 18.2294L123.968 18.3608L123.778 18.5521C123.778 18.5521 123.672 18.588 123.66 18.5162L123.589 18.2533L123.541 18.074L123.375 18.1696L123.138 18.3011C123.138 18.3011 123.031 18.3011 123.031 18.2413V17.7751L122.842 17.8229L122.581 17.8946C122.51 17.9066 122.474 17.8707 122.498 17.811L122.569 17.548L122.616 17.3567H122.154C122.083 17.3567 122.059 17.3089 122.095 17.2492L122.225 17.0101L122.32 16.8427L122.13 16.7949L121.869 16.7232C121.798 16.6993 121.786 16.6515 121.834 16.6037L122.024 16.4124L122.166 16.2689L122 16.1733L121.763 16.0418C121.763 16.0418 121.703 15.9462 121.763 15.9223L122 15.7908L122.166 15.6952L122.024 15.5517L121.834 15.3605L121.822 15.3724Z" fill="#FFC629"/>
<path fill-rule="evenodd" clip-rule="evenodd" d="M56.4116 19.9387C55.3682 20.6081 54.6924 21.7796 54.6924 23.1184C54.6924 25.1984 56.3642 26.8958 58.4153 26.8958C60.4664 26.8958 62.15 25.2103 62.15 23.1184V19.0542L65.4815 22.6881C65.7187 22.9391 66.0862 23.0945 66.4538 23.0945C66.8213 23.0945 67.1651 22.9391 67.4022 22.6881L70.7694 19.0542V23.1184C70.7694 25.1984 72.4411 26.8958 74.5041 26.8958C76.5671 26.8958 78.2269 25.2103 78.2269 23.1184C78.2269 21.7796 77.5393 20.5962 76.4959 19.9268V12.0852C77.5393 11.4158 78.2269 10.2324 78.2269 8.89354C78.2269 6.8136 76.5552 5.11618 74.5041 5.11618C73.3896 5.11618 72.3818 5.61823 71.6942 6.40718L67.0347 11.9895C66.9043 12.1689 66.7027 12.2884 66.4656 12.2884C66.2285 12.2884 66.0151 12.1689 65.8847 11.9895L61.2252 6.40718C60.5375 5.61823 59.5416 5.11618 58.4153 5.11618C56.3523 5.11618 54.6924 6.80165 54.6924 8.89354C54.6924 10.2324 55.392 11.4038 56.4234 12.0732V19.9507L56.4116 19.9387Z" fill="#FFC629"/>
<path fill-rule="evenodd" clip-rule="evenodd" d="M105.792 18.3848C106.682 18.3848 107.405 17.7273 107.535 16.8666C107.571 16.5798 107.595 16.2809 107.595 15.994C107.595 15.7071 107.559 15.3963 107.523 15.1094C107.393 14.2488 106.658 13.5913 105.781 13.5913H103.54C101.228 13.5913 99.3427 11.6907 99.3427 9.34777C99.3427 7.00485 101.204 5.10422 103.516 5.10422C104.085 5.10422 104.963 5.10422 104.963 5.10422C110.902 5.10422 115.704 9.96937 115.704 15.9821C115.704 21.9948 110.891 26.8599 104.951 26.8599H103.528C101.216 26.8599 99.3309 24.9712 99.3309 22.6283C99.3309 20.2854 101.204 18.3848 103.528 18.3848H105.781H105.792ZM100.635 22.6403C100.635 21.0146 101.939 19.6997 103.54 19.6997C105.14 19.6997 106.445 21.0146 106.445 22.6403C106.445 24.266 105.14 25.5809 103.54 25.5809C101.939 25.5809 100.635 24.266 100.635 22.6403ZM100.635 9.35973C100.635 7.73403 101.939 6.41912 103.54 6.41912C105.14 6.41912 106.445 7.73403 106.445 9.35973C106.445 10.9854 105.14 12.3003 103.54 12.3003C101.939 12.3003 100.635 10.9854 100.635 9.35973Z" fill="#FFC629"/>
<path fill-rule="evenodd" clip-rule="evenodd" d="M12.8758 17.5002L11.9036 20.5603C11.5242 20.0583 10.9314 19.7475 10.2674 19.7475C9.12922 19.7475 8.2163 20.6799 8.2163 21.8274C8.2163 22.975 9.14108 23.9074 10.2674 23.9074C11.2278 23.9074 11.9391 23.2021 12.2592 22.3295L15.0929 12.9458C16.0295 13.4359 16.8713 14.0814 17.6064 14.8345L15.0454 23.3097C14.3104 25.3657 12.5201 26.8958 10.2556 26.8958C7.49307 26.8958 5.25226 24.6365 5.25226 21.8394C5.25226 19.0422 7.49307 16.783 10.2556 16.783C11.2041 16.783 12.1051 17.0579 12.8521 17.5241L12.8758 17.5002Z" fill="#FFC629"/>
<path d="M22.9179 20.8711C22.2895 20.9907 21.6493 21.0504 20.9854 21.0504C19.5152 21.0504 18.1043 20.7516 16.8357 20.2137L15.9821 23.0467C17.5234 23.6563 19.2188 24.003 20.9854 24.003C21.3292 24.003 21.673 23.991 22.005 23.9671L22.9179 20.8831V20.8711Z" fill="#FFC629"/>
<path fill-rule="evenodd" clip-rule="evenodd" d="M8.35858 11.1408C9.02253 11.0093 9.71018 10.9376 10.4097 10.9376C13.2552 10.9376 15.828 12.0493 17.7605 13.8543C18.6497 14.6911 19.8116 15.229 21.1277 15.229C23.8902 15.229 26.131 12.9697 26.131 10.1726C26.131 7.37543 23.8902 5.11618 21.1277 5.11618C18.958 5.11618 17.1084 6.51476 16.4208 8.46321C17.3693 8.89354 18.2585 9.43146 19.0766 10.053C19.1358 8.96526 20.0369 8.09265 21.1277 8.09265C22.2184 8.09265 23.1788 9.02503 23.1788 10.1726C23.1788 11.3201 22.254 12.2525 21.1277 12.2525C20.5467 12.2525 20.0132 11.9656 19.6456 11.607C17.2033 9.35974 13.9665 7.99702 10.4216 7.99702C10.054 7.99702 9.69833 8.00897 9.33079 8.04483L8.35858 11.1408Z" fill="#FFC629"/>
<path fill-rule="evenodd" clip-rule="evenodd" d="M168.915 21.7557V8.34368C168.915 7.04073 169.721 5.92904 170.859 5.48676H175.625C174.487 5.92904 173.681 7.04073 173.681 8.34368V23.7759C173.681 24.9593 172.697 25.9156 171.535 25.9156C170.539 25.9156 169.709 25.2223 169.484 24.2899L168.915 21.7677V21.7557Z" fill="#FFC629"/>
<path fill-rule="evenodd" clip-rule="evenodd" d="M165.251 26.5133C164.48 26.1188 163.888 25.4135 163.662 24.5409L160.781 11.2604V8.33173C160.781 7.14831 161.73 6.19202 162.892 6.19202C163.876 6.19202 164.694 6.86142 164.931 7.78186L168.595 24.4692C168.796 25.3657 169.401 26.0949 170.195 26.5013H165.251V26.5133Z" fill="#FFC629"/>
<path d="M147.87 13.5674L146.352 16.2331C146.352 16.2331 146.305 16.3526 146.305 16.4124C146.305 16.4722 146.305 16.5319 146.329 16.5798L151.296 25.294C151.545 25.7363 151.403 26.2981 150.964 26.5611C150.526 26.8121 149.969 26.6687 149.72 26.2264L144.764 17.5241C144.574 17.2014 144.479 16.8188 144.479 16.4244C144.479 16.0299 144.574 15.6354 144.764 15.3127L146.281 12.647C146.578 12.1091 146.756 11.4994 146.756 10.83C146.756 9.51514 146.068 8.35563 145.036 7.71013C144.74 7.88944 144.467 8.11656 144.242 8.37954C144.598 9.12067 144.811 9.94547 144.811 10.83C144.811 11.8222 144.55 12.7665 144.088 13.5674L143.317 14.9182V17.9305L147.526 25.294C147.775 25.7363 147.633 26.2981 147.194 26.5611C146.756 26.8121 146.198 26.6687 145.949 26.2264L143.329 21.6242V25.7602C143.329 26.2742 142.914 26.6806 142.416 26.6806C141.918 26.6806 141.503 26.2622 141.503 25.7602V18.3967L140.993 17.5121C140.804 17.1894 140.709 16.8069 140.709 16.4124C140.709 16.0179 140.804 15.6235 140.993 15.3007L141.503 14.4161V10.83C141.503 9.95743 141.705 9.12067 142.072 8.37954C141.835 8.11656 141.574 7.88944 141.278 7.71013C140.246 8.35563 139.559 9.51514 139.559 10.83V25.7602C139.559 26.2742 139.144 26.6806 138.646 26.6806C138.148 26.6806 137.733 26.2622 137.733 25.7602V10.83C137.733 9.43146 138.243 8.15242 139.096 7.18417C137.235 7.33957 135.777 8.9055 135.777 10.83V25.7602C135.777 26.2742 135.362 26.6806 134.864 26.6806C134.366 26.6806 133.951 26.2622 133.951 25.7602V10.83C133.951 7.78186 136.393 5.3194 139.393 5.3194C140.057 5.3194 140.697 5.43893 141.29 5.66605C141.883 5.43893 142.523 5.3194 143.187 5.3194C143.851 5.3194 144.491 5.43893 145.084 5.66605C145.677 5.43893 146.317 5.3194 146.981 5.3194C149.992 5.3194 152.423 7.78186 152.423 10.83C152.423 11.8222 152.162 12.7665 151.7 13.5674L150.182 16.2331C150.182 16.2331 150.135 16.3526 150.135 16.4124C150.135 16.4722 150.135 16.5319 150.158 16.5798L154.924 24.9234C155.067 24.5648 155.15 24.1703 155.15 23.7639V8.34368C155.15 7.04073 155.956 5.92904 157.094 5.48675H161.86C160.722 5.92904 159.916 7.04073 159.916 8.34368V23.7759C159.916 24.9473 159.264 25.9754 158.303 26.4894H154.913C154.913 26.4894 154.841 26.5491 154.794 26.573C154.355 26.8241 153.798 26.6806 153.549 26.2383L148.593 17.5361C148.404 17.2133 148.309 16.8308 148.309 16.4363C148.309 16.0418 148.404 15.6474 148.593 15.3246L150.111 12.659C150.407 12.121 150.585 11.5114 150.585 10.842C150.585 8.91745 149.127 7.35152 147.265 7.19612C148.119 8.16437 148.629 9.44342 148.629 10.842C148.629 11.8342 148.368 12.7785 147.906 13.5794L147.87 13.5674Z" fill="#FFC629"/>
</g>
<defs>
<clipPath id="clip0_5_334">
<rect width="212" height="32" fill="white"/>
</clipPath>
</defs>
</svg>
