<svg width="696" height="469" viewBox="0 0 696 469" fill="none" xmlns="http://www.w3.org/2000/svg">
<path d="M688.44 300.193C689.787 295.772 692.836 287.992 688.44 280.862C684.043 273.757 675.305 284.602 665.517 282.217C655.728 279.857 646.986 282.568 639.545 288.672C632.155 294.772 626.759 292.412 620.666 292.737C614.624 293.062 611.226 296.127 605.831 301.548C600.435 306.972 606.532 326.303 603.836 330.697C601.14 335.091 600.116 336.797 599.793 342.222C599.44 347.646 594.048 351.361 591.701 353.067C589.328 354.777 583.933 357.812 587.304 359.492C590.676 361.202 584.608 370.012 576.866 368.657C569.098 367.302 566.078 361.878 558.986 365.947C551.893 370.012 552.242 370.341 539.108 370.341C525.973 370.341 522.576 380.536 512.137 380.536C501.699 380.536 509.764 375.441 500.325 370.341C490.885 365.271 485.817 367.306 479.073 363.561C472.33 359.847 470.982 355.781 469.31 347.646C468.583 344.149 467.235 341.166 465.186 338.374C462.49 334.659 458.523 331.325 453.131 327.666C443.692 321.211 440.672 311.045 439.321 301.555C437.973 292.065 432.228 288.675 429.532 280.216C426.836 271.73 430.208 270.726 430.531 263.595C430.88 256.465 432.232 246.65 429.532 233.415C426.836 220.211 431.879 212.076 436.625 203.941C441.319 195.806 444.015 190.385 442.02 185.64C439.971 180.895 435.277 187.675 428.537 183.255C421.793 178.861 421.092 182.251 407.285 179.189C393.475 176.154 395.15 168.019 390.779 162.595C386.382 157.17 389.078 147.68 384.035 144.294C378.967 140.904 381.339 138.194 376.943 135.155C372.546 132.09 368.502 127.345 364.131 119.21C359.761 111.075 358.413 107.686 349.972 97.1949C341.532 86.6747 337.837 88.0299 330.744 86.9996C323.677 85.9952 314.914 91.4197 311.865 97.8448C308.846 104.3 306.47 108.04 302.102 108.365C297.732 108.69 279.503 97.5199 275.132 92.0954C270.761 86.671 271.76 78.8648 269.736 73.1154C267.712 67.366 260.973 64.3048 255.577 61.24C250.181 58.2046 252.881 55.8155 243.441 48.386C234.002 40.9011 238.398 41.6064 236.349 38.1907C235.945 37.5112 234.435 37.0534 232.25 36.7801C223.648 35.6428 204.391 36.9167 199.292 35.8311C192.872 34.4759 193.548 42.2563 192.549 46.0006C191.524 49.7412 152.418 46.0006 139.956 45.3211C127.468 44.6417 62.739 15.1414 56.6712 10.0714C50.6035 5.00149 55.9954 3.97126 50.2509 2.94102C44.5247 1.93293 9.46628 2.28742 5.41867 1.58214C1.37474 0.932236 1.05152 4.29251 3.74748 8.03682C6.44343 11.7774 7.09355 15.8467 7.79141 22.2718C8.43785 28.697 15.5303 36.8318 14.535 42.9615C13.5102 49.0359 21.925 50.7419 19.9306 55.4869C17.881 60.2319 23.9745 58.1973 25.9726 63.2968C28.0221 68.3667 24.6246 77.5059 31.6914 80.9216C38.7582 84.2856 49.924 99.5508 53.2958 103.967C56.6675 108.361 58.0155 109.717 58.0155 115.137C58.0155 120.558 55.9917 121.238 52.9468 125.658C49.9277 130.052 47.228 128.368 43.5073 128.368C39.7866 128.368 37.4653 123.272 37.7885 118.523C38.1117 113.778 36.1173 110.743 33.7446 110.743C31.3718 110.743 31.7208 114.809 31.7208 118.878C31.7208 122.947 32.7198 125.658 34.7693 127.013C36.7638 128.368 43.5073 133.438 46.9048 139.213C50.2472 144.963 51.9478 146.993 54.9963 148.703C58.0155 150.383 57.3434 151.063 60.3919 151.063C63.4405 151.063 61.7399 152.418 63.738 157.842C65.7875 163.267 71.1831 157.842 74.8781 157.842C78.5731 157.842 88.7142 167.683 94.5946 175.467C100.501 183.248 98.1537 199.517 95.1051 207.652C92.0566 215.787 103.197 219.527 110.612 218.852C118.028 218.172 123.424 231.732 130.516 237.832C137.583 243.932 137.583 242.577 139.956 253.747C142.303 264.947 150.042 257.163 150.042 257.163C158.835 256.812 160.506 245.612 155.437 241.218C150.394 236.824 147.698 232.053 144.999 229.017C142.303 225.982 139.956 219.203 137.906 222.238C135.912 225.273 133.535 226.303 129.815 221.558C126.12 216.813 133.212 210.034 131.163 206.293C129.168 202.578 124.096 195.123 121.723 188.343C119.376 181.564 121.723 180.209 118.028 171.749C114.333 163.263 116.004 157.488 106.888 153.094C97.7974 148.699 102.194 141.569 94.7525 135.794C87.3625 130.044 92.0566 121.91 92.7581 118.523C93.4045 115.134 92.0566 113.099 88.0126 107.324C83.9687 101.574 84.6666 99.1889 83.3186 94.119C81.9706 89.049 76.8982 92.0843 71.8295 91.0541C66.7866 90.0497 65.7875 82.2694 58.695 78.8537C51.6025 75.4898 52.9505 69.3637 52.9505 58.8693C52.9505 48.3749 53.2994 51.7389 50.9561 47.0197C48.5833 42.2489 46.9122 35.1443 50.2546 28.6896C53.652 22.2645 55.3232 29.7198 64.0906 35.4692C72.8543 41.2445 70.8342 32.4339 74.5292 39.8893C78.2499 47.3447 86.3414 44.3093 86.6646 50.3837C87.0136 56.5134 84.3176 58.5185 89.0374 64.6446C93.7571 70.7189 94.7562 84.2745 97.4522 91.0541C100.148 97.8337 93.7571 103.96 94.7562 106.674C95.7809 109.384 99.8249 109.709 104.897 106.999C109.94 104.288 112.287 113.778 118.032 122.944C123.776 132.083 123.427 131.078 134.215 131.078C145.002 131.078 137.587 135.797 137.263 140.218C136.914 144.638 136.562 146.318 146.354 152.067C156.146 157.842 153.098 163.267 157.817 164.973C162.537 166.653 166.934 170.722 162.89 177.827C158.846 184.957 157.817 190.382 165.586 193.771C173.325 197.161 185.464 203.261 190.507 217.146C195.575 231.056 203.667 228.696 210.734 234.283C217.826 239.87 218.825 243.26 223.222 249.035C225.191 251.613 228.724 255.028 232.257 258.961C236.599 263.813 240.97 269.481 242.453 275.445C245.149 286.29 245.149 292.42 250.868 297.84C256.587 303.265 254.589 304.265 251.191 310.691C247.849 317.145 243.801 315.786 246.497 318.501C249.193 321.211 249.843 325.605 246.497 324.601C243.1 323.596 244.125 329.021 247.144 336.801C250.192 344.581 256.936 354.777 272.12 359.847C287.278 364.917 291.998 375.762 295.043 381.186C298.062 386.611 326.381 385.252 336.496 391.031C346.611 396.806 359.07 408.301 368.859 411.366C378.651 414.431 380.994 417.141 387.738 420.505C394.481 423.921 401.897 423.216 409.988 424.246C418.08 425.276 413.008 429.342 419.428 430.701C425.848 432.056 424.823 435.42 434.935 439.16C445.05 442.901 453.138 444.256 457.509 445.94C458.938 446.483 461.744 446.538 465.197 446.158C472.289 445.427 482.081 442.93 488.204 439.489C497.32 434.419 502.014 428.644 505.735 427.994C509.456 427.289 516.523 427.994 522.242 429.674C527.986 431.354 523.59 434.068 533.029 437.484C542.469 440.848 561.696 458.823 564.044 462.889C566.416 466.955 574.831 467.634 575.533 466.604C576.179 465.599 576.179 459.824 576.881 457.465C577.527 455.105 574.508 450.334 574.185 448.325C573.836 446.265 583.275 428.64 583.275 428.64C583.275 428.64 612.27 428.315 614.29 426.635C616.313 424.925 615.638 417.795 611.241 417.795C606.845 417.795 609.247 413.729 606.87 411.37C604.498 409.01 597.108 405.594 593.71 403.589C590.364 401.529 593.71 397.814 597.431 398.494C601.151 399.173 598.779 394.099 598.456 387.973C598.107 381.899 598.779 382.224 598.779 382.224C598.779 382.224 635.512 381.899 640.258 380.544C644.952 379.189 642.954 375.119 648.996 376.803C655.093 378.483 654.74 366.283 657.436 361.564C660.132 356.793 663.181 361.564 666.2 363.244C669.219 364.924 668.896 368.668 672.62 368.993C676.315 369.344 673.266 365.958 673.266 358.499C673.266 351.04 675.962 351.368 678.012 346.974C680.006 342.58 676.311 341.225 678.012 336.805C679.683 332.385 679.683 330.025 677.663 327.666C675.639 325.28 676.315 317.825 678.339 313.076C680.363 308.331 685.406 307.652 686.107 310.366C686.754 313.076 690.801 311.721 693.497 305.971C696.193 300.196 687.106 304.616 688.454 300.196L688.44 300.193Z" stroke="#FFDD6C" stroke-width="3" stroke-miterlimit="10"/>
</svg>
